<svg width="653" height="489" viewBox="0 0 653 489" fill="none" xmlns="http://www.w3.org/2000/svg">
<path d="M25.2 211.1C10.3 198 4.40008 188.9 0.800076 181.8C-2.79992 174.6 21.1999 172.6 26.3999 173.1C33.0999 173.7 41.6001 175.3 41.6001 175.3L25.2 211.1Z" fill="#110580"/>
<path d="M121.6 272.3C119.4 271.7 107.3 264.4 104.4 258.7C98.4999 246.8 75.5 249.9 75.5 249.9L124.9 197.1" fill="#110580"/>
<path d="M67.1001 164.8C71.1001 145.3 76.1 135.7 80.5 129.1C84.9 122.4 98.2002 142.5 100.7 147C103.6 152.4 107.9 161.2 107.9 161.2L67.1001 164.8Z" fill="#110580"/>
<path d="M217.7 101.8C209 110.5 202 120.9 193.7 129.9C188.8 135.2 178.2 146 180.1 132C182.4 114.2 198.3 98.1998 206.6 82.9998C215.7 66.2998 222.4 46 216.1 27.2C209.6 8.10001 178.6 -5.60038 167.5 17.7996C160.9 31.7996 170.6 45.5999 186 43.5999C186.7 43.4999 187.5 43.3996 188.2 43.2996C185.1 43.1996 181.9 43.0998 178.8 42.9998C181.9 43.6998 179.5 40.0996 179.1 43.7996C178.6 48.1996 179.1 52.3 178 56.7C175.9 65.8 171.7 74.0997 167.6 82.3997C159.1 99.3997 146.2 119.6 149.7 139.5C153.1 159.2 172.1 173.7 191.8 165.4C210.7 157.5 226.6 129.4 231.2 110.3C233.2 102.6 223.7 95.6996 217.7 101.8Z" fill="#110580"/>
<path d="M120.6 176.9C132.7 198.8 133 221.9 97.1 241.6C64.3 259.5 41.8999 249 29.7999 227.1C17.6999 205.2 28.2999 176.3 53.2999 162.4C78.3999 148.6 108.5 155.1 120.6 176.9Z" fill="#110580"/>
<path d="M75.8999 210.4C72.4999 211.3 69.5 213.1 67.1 215.8C66.7 216.3 66.6999 217 66.8999 217.6C67.1999 218.2 67.7999 218.6 68.3999 218.6C68.5999 218.6 68.8 218.6 69 218.7C68.5 218.5 68.9999 218.7 69.1999 218.7C69.4999 218.7 69.7 218.9 70 219C70.1 219 70.2999 219.1 70.3999 219.2C70.3999 219.2 70.4 219.2 70.5 219.2C70.7 219.3 70.9999 219.5 71.1999 219.6C72.2999 220.3 73.4 221 74.5 221.6L74.6999 221.7C74.6999 221.7 74.7 221.7 74.8 221.7C74.8 221.7 74.7999 221.7 74.8999 221.7C75.5999 221.9 76.5999 221.4 76.8999 220.7C76.8999 220.7 76.8999 220.6 76.8999 220.5C76.9999 220.2 77.0999 219.9 76.8999 219.6C76.8999 219.5 76.8999 219.3 76.8999 219.2C76.8999 218.9 76.9 218.6 77 218.2C77 218 77 217.9 77.1 217.7V217.5C77.2 217.2 77.2998 216.8 77.2998 216.4C77.5998 214.9 78.0998 213.3 77.7998 211.7C77.7998 211 76.8999 210.1 75.8999 210.4ZM77.2998 217.6C77.2998 217.3 77.2998 217.5 77.2998 217.6V217.6Z" fill="#787CCB"/>
<path d="M97.2002 177.2C97.6002 177.2 97.8998 177.7 97.7998 178.1C96.3998 182.5 95.1999 187.8 92.8999 191.5C90.4999 195.4 86.7 197.6 82.5 198.9C80.8 199.4 79.2 199.5 77.5 199.8C77.1 199.8 76.7 199.5 76.7 199.1C76.9 193.6 78.7999 188.2 81.8999 184C84.9999 179.7 91.7002 176.4 97.2002 177.2Z" fill="white"/>
<path d="M92.0002 189.6C91.7002 188.6 91.1002 187.7 90.5002 186.9C89.8002 186 89.1004 185.3 88.2004 184.7C87.0004 183.8 85.6002 183 84.0002 183C83.3002 183 82.4 183.3 81.8 183.7C81.2 184.2 80.9004 184.6 80.7004 185.5C80.5004 186.1 80.6004 186.7 80.7004 187.4C81.0004 188.4 81.4001 189.3 81.9001 190.1C83.2001 192.1 85.2002 193.6 87.5002 194.5C88.6002 194.9 89.7001 194.5 89.9001 194.5C91.0001 194.2 92.4 192.7 92.3 191.1C92.4 190.6 92.2002 190.2 92.0002 189.6Z" fill="#787CCB"/>
<path d="M60.1999 208.6C60.4999 208.8 60.6999 209.2 60.3999 209.6C58.2999 212.2 56 214.6 53.3 216.5C50.3 218.6 46.7999 219.9 43.1999 219.7C39.7999 219.5 36.6001 218 33.6001 216.4C33.3001 216.2 33.1999 215.8 33.3999 215.5C36.2999 211.3 40.2001 207.2 45.1001 206C49.9001 204.7 55.6999 206.3 60.1999 208.6Z" fill="white"/>
<path d="M50.1999 210C49.6999 208.6 49.1999 207.3 47.8999 206.4C46.2999 205.3 43.9999 205.5 42.8999 207.2C42.2999 208.2 42 209.5 42 210.6C41.8 213 42.4999 215.6 43.6999 217.7C44.0999 218.4 44.9 218.9 45.5 219.2C46.5 219.6 48 219.5 48.8 218.6C49.4 218 49.6999 217.3 49.8999 216.6C50.2999 215.6 50.5 214.4 50.5 213.4C50.7 212.2 50.5999 211 50.1999 210Z" fill="#787CCB"/>
<path d="M451.3 488.9C460.1 488.9 465.3 479.1 460.4 471.9C452.6 460.5 437.5 452.7 420 452.7C402.6 452.7 387.4 460.4 379.6 471.9C374.6 479.1 379.9 488.9 388.7 488.9H451.3Z" fill="#C5C6E3"/>
<path d="M483.3 353.7H122.8C112.1 353.7 103.3 344.9 103.3 334.2V117.4C103.3 106.7 112.1 97.8999 122.8 97.8999H483.3C494 97.8999 502.8 106.7 502.8 117.4V334.3C502.8 345 494.1 353.7 483.3 353.7Z" fill="#C5C6E3"/>
<path d="M482 313.8H124.3C119.9 313.8 116.3 310.2 116.3 305.8V117.2C116.3 112.8 119.9 109.2 124.3 109.2H482C486.4 109.2 490 112.8 490 117.2V305.9C489.9 310.2 486.3 313.8 482 313.8Z" fill="#E8EAF7"/>
<path d="M371 406.4H235.2L252 353.7H354.2L371 406.4Z" fill="#C5C6E3"/>
<path d="M402.4 393.1H203.8C200.9 393.1 198.6 395.4 198.6 398.3V401.2C198.6 404.1 200.9 406.4 203.8 406.4H402.4C405.3 406.4 407.6 404.1 407.6 401.2V398.3C407.6 395.4 405.2 393.1 402.4 393.1Z" fill="#C5C6E3"/>
<path d="M301.3 344.4C307.154 344.4 311.9 339.654 311.9 333.8C311.9 327.946 307.154 323.2 301.3 323.2C295.446 323.2 290.7 327.946 290.7 333.8C290.7 339.654 295.446 344.4 301.3 344.4Z" fill="#E8EAF7"/>
<path d="M449.686 52.2525L444.382 61.314L628.805 169.275L634.11 160.214L449.686 52.2525Z" fill="#676BC4"/>
<path d="M625.595 175.623L526.522 381.75L535.986 386.299L635.059 180.172L625.595 175.623Z" fill="#676BC4"/>
<path d="M429 45.8999C397.2 27.2999 356.8 36.4 336.1 66C334.3 68.6 335.1 72.1998 337.8 73.7998L449.2 139.2C451.9 140.8 455.5 139.7 456.8 136.9C472.4 104.3 460.7 64.5999 429 45.8999Z" fill="#2B31BA"/>
<path d="M454.2 3.70012C442.6 -3.09988 428 0.200026 420.4 11.1C419.7 12.1 420 13.2999 421 13.9999L461.5 37.7997C462.5 38.3997 463.8 37.9998 464.3 36.8998C470 24.8998 465.7 10.5001 454.2 3.70012Z" fill="#2B31BA"/>
<path d="M635 184.6C644.775 184.6 652.7 176.675 652.7 166.9C652.7 157.124 644.775 149.2 635 149.2C625.225 149.2 617.3 157.124 617.3 166.9C617.3 176.675 625.225 184.6 635 184.6Z" fill="#2B31BA"/>
<path d="M420.413 11.0367L399.245 47.1968L443.171 72.9114L464.339 36.7514L420.413 11.0367Z" fill="#2B31BA"/>
<path d="M604.8 419.3H466C462.8 419.3 460.3 416.7 460.3 413.6V413.4C460.3 400.9 470.4 390.8 482.9 390.8H588C600.5 390.8 610.6 400.9 610.6 413.4V413.6C610.6 416.8 608 419.3 604.8 419.3Z" fill="#2B31BA"/>
<path d="M568.1 392.7H502.7V386.9C502.7 379.2 509 372.9 516.7 372.9H554C561.7 372.9 568 379.2 568 386.9L568.1 392.7Z" fill="#2B31BA"/>
<path d="M623.5 314.4L622.4 314.2C620 313.7 617.5 315.1 616.5 317.3L609.4 337.1C609.3 337.4 609.3 337.7 609.2 337.9C611.4 339.8 614.3 341.2 617.6 341.7C620.6 342.2 623.3 341.9 625.9 341.2C625.9 341 626 340.7 626 340.5L627.6 319.5C627.8 317.1 626 314.9 623.5 314.4Z" fill="#D7D7E6"/>
<path d="M623.9 284.4C624.5 283.2 626.4 283.2 627 284.4C628.1 286.6 629.5 289.4 630.6 291.2C632.5 294.4 633.4 302.3 632.5 305.8C631.4 310.2 628.2 314.8 627.3 316.1C627.1 316.4 626.8 316.6 626.4 316.7C625.5 317 623.7 317.4 621.3 316.8C618.1 316 617.7 313.8 617.7 313.8C617.7 313.8 615.8 306.5 616.1 302.1C616.4 297.7 618.8 292.1 619.8 291.1C620.5 290.6 622.4 287 623.9 284.4Z" fill="#C7645D"/>
<path d="M597.3 416.8L609.2 339.4C609.2 339 609.4 338.5 609.5 338.2C611.7 340 614.5 341.4 617.8 341.9C620.7 342.4 623.5 342.1 625.9 341.4C625.9 341.9 625.8 342.3 625.7 342.8L607.2 418.9C606.5 421.5 603.9 423.1 601.3 422.5C598.7 421.9 596.9 419.5 597.3 416.8Z" fill="#2B31BA"/>
<path d="M589.786 277.298L565.651 279.06L576.364 425.862L600.498 424.101L589.786 277.298Z" fill="#DADAED"/>
<path d="M575.304 298.188L567.026 298.792L567.157 300.587L575.435 299.983L575.304 298.188Z" fill="#989BD7"/>
<path d="M576.504 314.587L568.227 315.191L568.358 316.986L576.635 316.382L576.504 314.587Z" fill="#989BD7"/>
<path d="M577.701 330.986L569.423 331.59L569.554 333.385L577.832 332.781L577.701 330.986Z" fill="#989BD7"/>
<path d="M578.901 347.385L570.623 347.989L570.754 349.785L579.032 349.181L578.901 347.385Z" fill="#989BD7"/>
<path d="M580.103 363.884L571.825 364.488L571.956 366.284L580.234 365.68L580.103 363.884Z" fill="#989BD7"/>
<path d="M581.303 380.283L573.025 380.887L573.156 382.683L581.434 382.079L581.303 380.283Z" fill="#989BD7"/>
<path d="M582.5 396.683L574.222 397.287L574.353 399.082L582.631 398.478L582.5 396.683Z" fill="#989BD7"/>
<path d="M565.391 327.923L549.927 330.63L570.235 446.663L585.7 443.956L565.391 327.923Z" fill="#FFADB2"/>
<path d="M565.4 328.1L550 330.8L552.4 308.6L555.6 308L565.4 328.1Z" fill="#EBDBCD"/>
<path d="M553.4 318.8L555.6 317.3L557.5 317.6L559.7 316.4L555.6 308L552.4 308.6L551.5 317.5L553.4 318.8Z" fill="#FF7A82"/>
<path d="M554.6 369.5H622.1C623.9 369.5 625.2 371 625 372.7L616 444.8C615.6 448.2 612.7 450.7 609.4 450.7H567.1C563.7 450.7 560.9 448.2 560.5 444.8L551.8 372.7C551.6 371.1 552.9 369.5 554.6 369.5Z" fill="#FF7A82"/>
<path d="M207.2 465.7H82.6001C79.0001 465.7 76.1001 462.8 76.1001 459.2V459.1C76.1001 455.5 79.0001 452.6 82.6001 452.6H207.2C210.8 452.6 213.7 455.5 213.7 459.1V459.2C213.7 462.9 210.8 465.7 207.2 465.7Z" fill="#C5C6E3"/>
<path d="M214.7 307.4C214.1 302.7 210.7 298.7 206.9 295.8C196.2 287.4 181.7 284.8 168.3 286.9C163.3 287.7 158.3 289.2 154.1 292.1C145.5 298 141.8 309.9 145.2 319.8C145.7 321.2 147.3 322.7 147.3 322.7C143.1 330.6 140.7 336.5 137.2 344.6C145.4 338.3 154.3 332.9 163.8 328.4L164.9 329C176.1 335.8 190.9 332.5 202.1 325.8C209 321.8 215.7 315.2 214.7 307.4Z" fill="#FCFAF8"/>
<path d="M163.9 313C166.164 313 168 311.254 168 309.1C168 306.946 166.164 305.2 163.9 305.2C161.636 305.2 159.8 306.946 159.8 309.1C159.8 311.254 161.636 313 163.9 313Z" fill="#D6D7F0"/>
<path d="M178.2 313C180.465 313 182.3 311.254 182.3 309.1C182.3 306.946 180.465 305.2 178.2 305.2C175.936 305.2 174.1 306.946 174.1 309.1C174.1 311.254 175.936 313 178.2 313Z" fill="#D6D7F0"/>
<path d="M191.5 313C193.764 313 195.6 311.254 195.6 309.1C195.6 306.946 193.764 305.2 191.5 305.2C189.236 305.2 187.4 306.946 187.4 309.1C187.4 311.254 189.236 313 191.5 313Z" fill="#D6D7F0"/>
<path d="M99.3998 320.3C91.0998 318.5 84.2001 307.5 81.7001 300.8C80.5001 297.4 80.4998 293.3 80.8998 289.8C81.3998 286.3 82.9998 282.7 85.8998 280.6C89.1998 278.3 93.8997 278.2 97.2997 280.3C100.7 282.5 102.6 285.4 103.4 289.8C106.8 286.9 109.6 286 114 285.3C117.2 284.8 120.8 285.1 123.3 287.1C126.5 289.8 126.8 294.8 125.1 298.6C123.3 302.4 120 307.1 115.9 310.6C111.3 314.6 105.3 318.2 99.3998 320.3Z" fill="#FF5856"/>
<path d="M117.1 418.4L109.9 415.5C108.2 414.8 107.3 412.8 108 411.1L116.7 389.6C117.4 387.9 119.4 387 121.1 387.7L128.3 390.6C130 391.3 130.9 393.3 130.2 395L121.5 416.5C120.8 418.3 118.8 419.1 117.1 418.4Z" fill="#676BC4"/>
<path d="M138.8 426.2L124.6 420.6C122.4 419.5 121.5 416.5 122.5 413.9L129.5 396.5C130.4 394.3 132.6 393 134.8 393.5L156.5 403.3C159.7 404.1 159 405.2 157.7 408.5L148.3 421.8C146.7 426 138.8 426.2 138.8 426.2Z" fill="#FCBF9A"/>
<path d="M131.5 394.2C131.5 394.2 141.4 388.5 144.6 386C147.2 383.9 149.6 380.1 151.1 380.3C157.7 381 153.8 388 152.5 389.8C150.6 392.3 144.9 397.7 144.9 397.7L131.5 394.2Z" fill="#FCBF9A"/>
<path d="M143.7 428.1L128.7 422.2C126.7 421.4 125.7 419.2 126.5 417.2C127.3 415.2 129.5 414.2 131.5 415L146.5 420.9C148.5 421.7 149.5 423.9 148.7 425.9C147.9 427.9 145.6 428.9 143.7 428.1Z" fill="#FCBF9A"/>
<path d="M147.9 421.9L132.9 416C130.9 415.2 129.9 413 130.7 411C131.5 409 133.7 408 135.7 408.8L150.7 414.7C152.7 415.5 153.7 417.7 152.9 419.7C152.2 421.8 149.9 422.8 147.9 421.9Z" fill="#FCBF9A"/>
<path d="M152.7 415.9L137.7 410C135.7 409.2 134.7 407 135.5 405C136.3 403 138.5 402 140.5 402.8L155.5 408.7C157.5 409.5 158.5 411.7 157.7 413.7C156.9 415.7 154.6 416.7 152.7 415.9Z" fill="#FCBF9A"/>
<path d="M156.3 409.5L141.3 403.6C139.3 402.8 138.3 400.6 139.1 398.6C139.9 396.6 142.1 395.6 144.1 396.4L159.1 402.3C161.1 403.1 162.1 405.3 161.3 407.3C160.5 409.4 158.2 410.3 156.3 409.5Z" fill="#FCBF9A"/>
<path opacity="0.18" d="M13.7 233.9L83.6001 452.6H144.9H206.3L276.3 233.9H13.7Z" fill="#FCB58A"/>
</svg>
